<?xml version="1.0" standalone="no"?>
<!DOCTYPE svg PUBLIC "-//W3C//DTD SVG 20010904//EN"
 "http://www.w3.org/TR/2001/REC-SVG-20010904/DTD/svg10.dtd">
<svg version="1.0" xmlns="http://www.w3.org/2000/svg"
 width="340.000000pt" height="340.000000pt" viewBox="0 0 340.000000 340.000000"
 preserveAspectRatio="xMidYMid meet">
<metadata>
Created by potrace 1.14, written by Peter Selinger 2001-2017
</metadata>
<g transform="translate(0.000000,340.000000) scale(0.100000,-0.100000)"
fill="#000000" stroke="none">
<path d="M1345 2881 c-81 -37 -133 -125 -121 -207 15 -112 84 -176 195 -182
80 -3 129 20 176 86 27 39 30 52 30 116 0 63 -4 78 -28 115 -52 79 -166 111
-252 72z"/>
<path d="M3336 2531 c-43 -47 -41 -136 4 -176 20 -18 20 -17 20 88 0 59 -2
107 -3 107 -2 0 -12 -8 -21 -19z"/>
<path d="M1224 2395 c-5 -12 -94 -926 -94 -958 0 -21 15 -25 311 -84 172 -35
314 -65 317 -68 5 -4 40 -477 41 -552 l1 -33 90 0 90 0 0 28 c0 15 7 196 15
402 7 206 13 375 12 376 -1 1 -105 28 -232 60 l-230 59 4 95 c1 52 6 133 10
179 l6 83 47 -66 48 -66 255 0 255 0 0 53 0 54 -137 21 c-76 12 -158 25 -183
28 l-46 6 -124 185 c-69 101 -129 188 -135 193 -15 12 -317 17 -321 5z"/>
<path d="M3309 2189 l-22 -32 24 -18 c39 -30 49 -24 49 31 0 60 -17 66 -51 19z"/>
<path d="M1050 2128 c0 -7 -13 -193 -29 -413 -16 -220 -28 -402 -25 -404 2 -2
148 -29 324 -61 176 -31 323 -59 326 -62 6 -7 23 -264 24 -355 l0 -63 -310 0
-310 0 0 -35 0 -35 351 0 351 0 -6 73 c-3 39 -11 162 -17 272 -6 110 -15 202
-19 205 -5 3 -149 30 -320 60 -196 34 -314 59 -317 67 -3 7 7 173 21 370 14
197 26 366 26 376 0 13 -8 17 -35 17 -21 0 -35 -5 -35 -12z"/>
<path d="M1867 1803 c-4 -3 -7 -19 -7 -35 l0 -28 405 0 405 0 0 -115 0 -115
-230 0 -230 0 0 -405 0 -405 245 0 245 0 0 35 0 35 -207 2 -208 3 -3 333 -2
332 230 0 230 0 0 185 0 185 -433 0 c-239 0 -437 -3 -440 -7z"/>
</g>
</svg>
