<?xml version="1.0" standalone="no"?>
<!DOCTYPE svg PUBLIC "-//W3C//DTD SVG 20010904//EN"
 "http://www.w3.org/TR/2001/REC-SVG-20010904/DTD/svg10.dtd">
<svg version="1.0" xmlns="http://www.w3.org/2000/svg"
 width="139.000000pt" height="139.000000pt" viewBox="0 0 139.000000 139.000000"
 preserveAspectRatio="xMidYMid meet">
<metadata>
Created by potrace 1.14, written by Peter Selinger 2001-2017
</metadata>
<g transform="translate(0.000000,139.000000) scale(0.100000,-0.100000)"
fill="#000000" stroke="none">
<path d="M480 1060 c-113 -43 -212 -83 -220 -88 -22 -13 0 -36 50 -51 l40 -12
0 -95 c0 -86 2 -95 18 -92 14 3 17 17 20 86 2 60 6 82 15 79 8 -2 13 -48 15
-154 l3 -151 52 -21 c159 -64 340 -62 482 5 l40 19 5 149 5 148 80 32 c48 18
80 37 80 45 0 16 -424 182 -460 180 -11 0 -112 -36 -225 -79z m407 -26 c98
-37 181 -69 185 -73 4 -3 -76 -37 -177 -75 l-185 -69 -184 68 c-102 38 -183
72 -180 75 5 5 343 137 356 139 4 1 88 -29 185 -65z m-294 -219 l118 -44 115
44 c64 25 120 45 125 45 5 0 9 -56 9 -124 l0 -125 -57 -21 c-129 -48 -299 -44
-415 10 l-28 13 0 124 c0 67 3 123 8 123 4 0 60 -20 125 -45z"/>
<path d="M218 723 c-29 -34 -29 -43 -4 -135 13 -51 30 -113 36 -138 9 -35 30
-63 93 -128 80 -81 82 -85 87 -140 4 -44 9 -58 23 -60 15 -3 17 5 17 64 l0 67
-84 86 -85 86 -31 114 c-17 63 -30 124 -28 135 4 27 44 34 52 9 27 -90 46
-173 46 -200 0 -29 8 -39 66 -81 36 -26 73 -47 82 -47 35 0 19 26 -42 70 -66
47 -82 77 -50 89 16 6 168 -83 213 -125 34 -31 41 -61 41 -165 0 -78 3 -96 16
-101 28 -10 35 19 31 118 -7 140 -24 164 -182 264 -69 43 -96 55 -117 51 -25
-5 -27 -2 -43 64 -22 88 -45 120 -89 120 -19 0 -39 -7 -48 -17z"/>
<path d="M1102 722 c-10 -10 -26 -52 -37 -94 -17 -71 -21 -77 -41 -72 -25 6
-55 -8 -157 -74 -128 -82 -150 -124 -145 -272 3 -71 6 -85 21 -88 15 -3 17 6
17 80 0 151 14 173 164 267 71 44 89 51 101 41 25 -21 17 -35 -50 -83 -36 -26
-65 -51 -65 -56 0 -26 28 -19 91 24 69 47 73 53 82 126 3 20 15 68 27 107 17
58 25 72 41 72 11 0 22 -7 25 -15 4 -8 -8 -70 -26 -137 l-32 -123 -79 -80
c-80 -82 -99 -116 -99 -183 0 -21 6 -35 16 -39 22 -8 34 14 34 66 0 41 5 49
83 130 l83 86 32 122 c37 141 39 173 14 196 -24 22 -77 22 -100 -1z"/>
</g>
</svg>
